<svg width="99" height="18" viewBox="0 0 99 18" fill="none" xmlns="http://www.w3.org/2000/svg">
<path d="M25.5643 4.37202C24.9799 5.14302 24.5197 6.12584 24.0757 7.09186C23.6317 8.05789 23.1905 9.01328 22.7385 9.6914C22.2865 10.3695 21.8605 10.7023 21.4013 10.7023C20.8398 10.7023 20.5219 10.5429 20.2407 10.245C19.9594 9.94719 19.7401 9.49152 19.5342 9.01744C19.3282 8.54336 19.1415 8.04387 18.8277 7.6214C18.5139 7.19892 18.0136 6.85116 17.3644 6.85116C16.9971 6.85116 16.6747 7.01091 16.4308 7.23628C16.1869 7.46165 16.009 7.7578 15.8505 8.07876C15.5336 8.72036 15.2968 9.51578 14.9927 10.2932C14.6886 11.0704 14.3144 11.8301 13.8069 12.3632C13.2993 12.8963 12.6717 13.2297 11.7127 13.2297H0.409438C0.263854 13.2277 0.128438 13.3007 0.0550449 13.4207C-0.0183483 13.5406 -0.0183483 13.689 0.0550449 13.809C0.128438 13.9289 0.263854 14.0019 0.409438 13.9999H11.7127C12.8824 13.9999 13.785 13.5276 14.4124 12.8687C15.0398 12.2098 15.432 11.3699 15.7496 10.5579C16.0672 9.74593 16.3104 8.94204 16.5822 8.39163C16.7182 8.11642 16.8535 7.91208 16.9859 7.78992C17.1183 7.66761 17.2134 7.6214 17.3644 7.6214C17.7515 7.6214 17.9492 7.77899 18.1717 8.07876C18.3943 8.3783 18.5902 8.84168 18.8025 9.33039C19.0148 9.81895 19.2344 10.3261 19.6351 10.7505C20.0358 11.1748 20.6352 11.4726 21.4013 11.4726C22.2696 11.4726 22.9091 10.8665 23.4197 10.1006C23.9303 9.33455 24.3664 8.36429 24.8074 7.40481C25.2484 6.44517 25.71 5.50249 26.2203 4.8293C26.7306 4.15612 27.2351 3.77023 27.8603 3.77023C28.1451 3.77023 28.3953 3.87275 28.6677 4.10721C28.94 4.34167 29.2102 4.70945 29.475 5.16628C30.0048 6.07993 30.5075 7.35027 31.0393 8.63233C31.5711 9.91438 32.1472 11.2085 32.9064 12.2188C33.6655 13.2289 34.6497 13.9759 35.934 13.9759H47.5906C47.7361 13.9779 47.8716 13.9049 47.945 13.7849C48.0183 13.665 48.0183 13.5166 47.945 13.3966C47.8716 13.2767 47.7361 13.2037 47.5906 13.2057H35.934C34.9698 13.2057 34.2413 12.689 33.5624 11.7854C32.8835 10.8821 32.2976 9.63694 31.771 8.3676C31.2444 7.0981 30.7613 5.80519 30.1815 4.80527C29.8916 4.30524 29.5987 3.8773 29.2227 3.55364C28.8467 3.22991 28.3712 3 27.8603 3C26.8938 3 26.1487 3.60109 25.5643 4.37202Z" fill="url(#paint0_linear)"/>
<path fill-rule="evenodd" clip-rule="evenodd" d="M80.5096 13.5875V1H78.4709V13.5875H80.5096ZM60.1886 17V12.3693C60.2551 12.6573 60.5242 12.9654 60.9957 13.2937C61.4673 13.622 62.0387 13.7862 62.71 13.7862C63.3036 13.7862 63.8472 13.6523 64.341 13.3844C64.8347 13.1166 65.2397 12.7595 65.5559 12.3132C65.8721 11.8668 66.1162 11.3629 66.2882 10.8013C66.4602 10.2397 66.5462 9.65659 66.5462 9.05184C66.5462 8.2455 66.4005 7.49964 66.1093 6.81425C65.818 6.12887 65.3853 5.57163 64.8111 5.14255C64.237 4.71346 63.5754 4.49892 62.8265 4.49892C62.1164 4.49892 61.5158 4.66739 61.0249 5.00432C60.5339 5.34125 60.2551 5.67099 60.1886 5.99352V4.72354H58C58.1054 6.19798 58.1581 7.1915 58.1581 7.7041V17H60.1886ZM62.2356 12.0583C61.8584 12.0583 61.5269 11.9777 61.2412 11.8164C60.9555 11.6551 60.7294 11.4348 60.563 11.1555C60.3966 10.8762 60.2732 10.5652 60.1927 10.2225C60.1123 9.87977 60.0721 9.50684 60.0721 9.10367C60.0721 8.56227 60.1442 8.08279 60.2884 7.66523C60.4327 7.24766 60.6712 6.90497 61.0041 6.63715C61.3369 6.36933 61.7447 6.23542 62.2273 6.23542C62.7155 6.23542 63.1274 6.37077 63.4631 6.64147C63.7987 6.91217 64.0386 7.26062 64.1829 7.68682C64.3271 8.11303 64.3992 8.59971 64.3992 9.14687C64.3992 9.54428 64.359 9.91145 64.2786 10.2484C64.1981 10.5853 64.0761 10.892 63.9124 11.1685C63.7488 11.4449 63.5241 11.6623 63.2384 11.8207C62.9527 11.9791 62.6184 12.0583 62.2356 12.0583ZM72.7415 13.6134C72.4503 13.7286 72.1299 13.7862 71.7804 13.7862C70.7485 13.7862 69.9441 13.4795 69.3672 12.8661C68.7902 12.2527 68.5017 11.4104 68.5017 10.3391V4.72354H70.5488V10.3045C70.5488 10.892 70.6958 11.3312 70.9899 11.622C71.2839 11.9129 71.6889 12.0583 72.2048 12.0583C72.8206 12.0583 73.2769 11.8985 73.5737 11.5788C73.8705 11.2592 74.0189 10.7451 74.0189 10.0367V4.72354H76.0826V11.203L76.1825 13.5875H74.0522L74.0189 12.2743C73.9911 12.401 73.9287 12.5407 73.8316 12.6933C73.7346 12.8459 73.6014 13.0086 73.4322 13.1814C73.263 13.3542 73.0328 13.4982 72.7415 13.6134ZM86.9838 13.7041C86.7008 13.7588 86.4096 13.7862 86.11 13.7862C85.3611 13.7862 84.6732 13.6767 84.0463 13.4579C83.4194 13.239 82.9201 12.977 82.5484 12.6717L83.0643 11.1339C83.4138 11.4161 83.8549 11.6479 84.3875 11.8294C84.92 12.0108 85.4332 12.1015 85.9269 12.1015C86.3874 12.1015 86.7355 12.0209 86.9713 11.8596C87.2071 11.6983 87.3249 11.4363 87.3249 11.0734V10.9179C87.3249 10.7336 87.2556 10.5767 87.1169 10.4471C86.9782 10.3175 86.6592 10.1692 86.1599 10.0022L84.945 9.59611C84.6343 9.49244 84.3764 9.39597 84.1711 9.3067C83.9658 9.21742 83.7564 9.10367 83.5428 8.96544C83.3292 8.82721 83.1628 8.67603 83.0435 8.51188C82.9243 8.34773 82.8272 8.14615 82.7523 7.90713C82.6774 7.66811 82.6399 7.39309 82.6399 7.08207C82.6399 6.63283 82.7245 6.2383 82.8937 5.89849C83.063 5.55868 83.2973 5.29086 83.5969 5.09503C83.8965 4.89921 84.2293 4.75378 84.5955 4.65875C84.9616 4.56371 85.3638 4.5162 85.8021 4.5162C86.3458 4.5162 86.8895 4.58819 87.4331 4.73218C87.9768 4.87617 88.4539 5.08927 88.8644 5.37149L88.3318 6.84017C87.999 6.65587 87.6093 6.50036 87.1627 6.37365C86.7161 6.24694 86.3125 6.18359 85.9519 6.18359C85.4803 6.18359 85.1392 6.24406 84.9284 6.36501C84.7175 6.48596 84.6121 6.68467 84.6121 6.96112C84.6121 7.14543 84.6454 7.28942 84.712 7.39309C84.7786 7.49676 84.9173 7.60331 85.1281 7.71274C85.3389 7.82217 85.6773 7.95752 86.1433 8.11879L87.25 8.50756C87.6939 8.66307 88.0503 8.83297 88.3194 9.01728C88.5884 9.20158 88.8048 9.46364 88.9684 9.80346C89.1321 10.1433 89.2139 10.5695 89.2139 11.0821C89.2139 11.4737 89.1515 11.8279 89.0267 12.1447C88.9019 12.4615 88.7382 12.7207 88.5357 12.9222C88.3332 13.1238 88.0947 13.2909 87.8201 13.4233C87.5455 13.5558 87.2667 13.6494 86.9838 13.7041ZM95.4301 13.7862C96.0958 13.7862 96.7019 13.6955 97.2483 13.514C97.7948 13.3326 98.3371 13.049 98.8752 12.6631L98.3176 11.108C97.4411 11.7415 96.5424 12.0583 95.6215 12.0583C94.8337 12.0583 94.2027 11.851 93.7283 11.4363C93.254 11.0216 93.0002 10.3823 92.9669 9.51836H98.9584C98.9861 9.43197 99 9.30526 99 9.13823C99 8.48164 98.9293 7.88265 98.7878 7.34125C98.6463 6.79986 98.4286 6.31174 98.1346 5.87689C97.8405 5.44204 97.4411 5.10367 96.9363 4.86177C96.4314 4.61987 95.8406 4.49892 95.1638 4.49892C94.487 4.49892 93.8698 4.62563 93.3123 4.87905C92.7547 5.13247 92.2943 5.47516 91.9309 5.90713C91.5675 6.33909 91.286 6.83441 91.0863 7.39309C90.8865 7.95176 90.7867 8.54212 90.7867 9.16415C90.7867 10.5407 91.2014 11.6551 92.0308 12.5076C92.8601 13.36 93.9932 13.7862 95.4301 13.7862ZM92.9919 8.09287H97.2358C97.136 7.46508 96.9113 6.98416 96.5618 6.65011C96.2123 6.31605 95.7851 6.14903 95.2803 6.14903C94.6867 6.14903 94.1902 6.32181 93.7907 6.66739C93.3913 7.01296 93.125 7.48812 92.9919 8.09287Z" fill="white"/>
<defs>
<linearGradient id="paint0_linear" x1="42.7075" y1="9.87018" x2="6.66542" y2="9.87018" gradientUnits="userSpaceOnUse">
<stop stop-color="#7DEECE"/>
<stop offset="0.513646" stop-color="#8E00E0"/>
<stop offset="1" stop-color="#5390D9"/>
</linearGradient>
</defs>
</svg>
