<?xml version="1.0" standalone="no"?>
<!DOCTYPE svg PUBLIC "-//W3C//DTD SVG 20010904//EN"
 "http://www.w3.org/TR/2001/REC-SVG-20010904/DTD/svg10.dtd">
<svg version="1.0" xmlns="http://www.w3.org/2000/svg"
 width="700.000000pt" height="700.000000pt" viewBox="0 0 700.000000 700.000000"
 preserveAspectRatio="xMidYMid meet">
<metadata>
Created by potrace 1.11, written by Peter Selinger 2001-2013
</metadata>
<g transform="translate(0.000000,700.000000) scale(0.100000,-0.100000)"
fill="#000000" stroke="none">
<path d="M3984 4291 c-154 -40 -281 -186 -430 -498 -176 -369 -233 -472 -298
-541 -65 -70 -151 -90 -232 -53 -74 34 -113 87 -184 250 -90 208 -166 281
-294 287 -135 6 -203 -72 -306 -351 -123 -334 -203 -460 -332 -526 -89 -46
-89 -46 -1001 -46 -813 -1 -869 -2 -888 -19 -23 -21 -24 -42 -3 -72 l15 -22
872 0 c953 1 938 0 1055 59 154 78 266 235 366 516 20 55 40 109 45 120 5 11
16 41 25 66 22 61 69 134 100 154 32 21 87 11 127 -23 20 -16 59 -85 115 -199
71 -148 93 -183 137 -226 90 -87 225 -119 338 -82 104 35 213 168 319 390 160
333 213 437 257 502 100 149 175 206 272 207 45 0 65 -5 92 -24 84 -59 148
-159 262 -410 9 -19 53 -123 97 -230 152 -363 246 -528 375 -656 78 -77 183
-137 265 -152 25 -4 445 -8 933 -8 868 1 889 1 903 20 18 25 18 47 0 72 -14
19 -36 19 -913 20 -872 1 -899 2 -949 21 -140 55 -245 175 -373 428 -31 61
-65 130 -75 155 -10 25 -54 128 -96 230 -104 248 -133 310 -192 408 -60 100
-135 178 -202 211 -52 25 -148 36 -202 22z"/>
</g>
</svg>
